# xmcd
# 
# Track frame offsets:
#     150
#     600
#     23450
#     45687
#     68515
#     91475
#     113939
#     136413
#     159176
#     181827
#     204494
#     226901
#     249833
#     272267
#     295356
# 
# Disc length: 4285
# 
# Revision: 1
# Processed by: cddbd v1.5.2PL0 Copyright (c) Steve Scherf et al.
# Submitted via: fre:ac v1.1beta1pre5
# 
DISCID=b610bb0f
DTITLE=Henning Mankell - Innan Frosten
DYEAR=2002
DGENRE=Audiobook
TTITLE0=CD09 - Innan Frosten
TTITLE1=CD09 - Innan Frosten
TTITLE2=CD09 - Innan Frosten
TTITLE3=CD09 - Innan Frosten
TTITLE4=CD09 - Innan Frosten
TTITLE5=CD09 - Innan Frosten
TTITLE6=CD09 - Innan Frosten
TTITLE7=CD09 - Innan Frosten
TTITLE8=CD09 - Innan Frosten
TTITLE9=CD09 - Innan Frosten
TTITLE10=CD09 - Innan Frosten
TTITLE11=CD09 - Innan Frosten
TTITLE12=CD09 - Innan Frosten
TTITLE13=CD09 - Innan Frosten
TTITLE14=CD09 - Innan Frosten
EXTD=
EXTT0=
EXTT1=
EXTT2=
EXTT3=
EXTT4=
EXTT5=
EXTT6=
EXTT7=
EXTT8=
EXTT9=
EXTT10=
EXTT11=
EXTT12=
EXTT13=
EXTT14=
PLAYORDER=
